<mxfile host="app.diagrams.net" modified="2023-09-15T15:33:30.641Z" agent="Mozilla/5.0 (X11; Linux x86_64) AppleWebKit/537.36 (KHTML, like Gecko) Chrome/116.0.0.0 Safari/537.36" etag="qXcWJ1Zou3-WAGnoKurb" version="21.7.4" type="device">
  <diagram name="Page-1" id="ahZg-d82cFKrj_sNf6kS">
    <mxGraphModel dx="1364" dy="803" grid="1" gridSize="10" guides="1" tooltips="1" connect="1" arrows="1" fold="1" page="1" pageScale="1" pageWidth="850" pageHeight="1100" math="0" shadow="0">
      <root>
        <mxCell id="0" />
        <mxCell id="1" parent="0" />
        <mxCell id="r4TWweg1bSOyHS32X4sf-29" style="edgeStyle=orthogonalEdgeStyle;rounded=0;orthogonalLoop=1;jettySize=auto;html=1;entryX=0.75;entryY=0;entryDx=0;entryDy=0;startArrow=classic;startFill=1;" parent="1" source="r4TWweg1bSOyHS32X4sf-3" target="r4TWweg1bSOyHS32X4sf-1" edge="1">
          <mxGeometry relative="1" as="geometry">
            <Array as="points">
              <mxPoint x="430" y="220" />
            </Array>
          </mxGeometry>
        </mxCell>
        <mxCell id="r4TWweg1bSOyHS32X4sf-3" value="" style="rounded=1;whiteSpace=wrap;html=1;" parent="1" vertex="1">
          <mxGeometry x="480" y="80" width="340" height="270" as="geometry" />
        </mxCell>
        <mxCell id="r4TWweg1bSOyHS32X4sf-4" value="Channel estimation" style="text;html=1;strokeColor=none;fillColor=none;align=center;verticalAlign=middle;whiteSpace=wrap;rounded=0;" parent="1" vertex="1">
          <mxGeometry x="510" y="95" width="60" height="30" as="geometry" />
        </mxCell>
        <mxCell id="r4TWweg1bSOyHS32X4sf-7" value="" style="rounded=1;whiteSpace=wrap;html=1;fillColor=#fff2cc;strokeColor=#d6b656;" parent="1" vertex="1">
          <mxGeometry x="670" y="175" width="120" height="60" as="geometry" />
        </mxCell>
        <mxCell id="r4TWweg1bSOyHS32X4sf-8" value="Specular estimation (LM)" style="text;html=1;strokeColor=none;fillColor=none;align=center;verticalAlign=middle;whiteSpace=wrap;rounded=0;" parent="1" vertex="1">
          <mxGeometry x="700" y="190" width="60" height="30" as="geometry" />
        </mxCell>
        <mxCell id="r4TWweg1bSOyHS32X4sf-9" value="" style="rounded=1;whiteSpace=wrap;html=1;" parent="1" vertex="1">
          <mxGeometry x="670" y="95" width="120" height="60" as="geometry" />
        </mxCell>
        <mxCell id="r4TWweg1bSOyHS32X4sf-10" value="DMC and noise estimation (GN)" style="text;html=1;strokeColor=none;fillColor=none;align=center;verticalAlign=middle;whiteSpace=wrap;rounded=0;" parent="1" vertex="1">
          <mxGeometry x="700" y="110" width="60" height="30" as="geometry" />
        </mxCell>
        <mxCell id="r4TWweg1bSOyHS32X4sf-11" value="" style="rounded=1;whiteSpace=wrap;html=1;fillColor=#fff2cc;strokeColor=#d6b656;" parent="1" vertex="1">
          <mxGeometry x="510" y="130" width="120" height="60" as="geometry" />
        </mxCell>
        <mxCell id="r4TWweg1bSOyHS32X4sf-12" value="RiMAX algorithm" style="text;html=1;strokeColor=none;fillColor=none;align=center;verticalAlign=middle;whiteSpace=wrap;rounded=0;" parent="1" vertex="1">
          <mxGeometry x="540" y="145" width="60" height="30" as="geometry" />
        </mxCell>
        <mxCell id="r4TWweg1bSOyHS32X4sf-13" value="" style="rounded=1;whiteSpace=wrap;html=1;fillColor=#dae8fc;strokeColor=#6c8ebf;" parent="1" vertex="1">
          <mxGeometry x="670" y="265" width="120" height="60" as="geometry" />
        </mxCell>
        <mxCell id="r4TWweg1bSOyHS32X4sf-14" value="Weights estimation (BLUE)" style="text;html=1;strokeColor=none;fillColor=none;align=center;verticalAlign=middle;whiteSpace=wrap;rounded=0;" parent="1" vertex="1">
          <mxGeometry x="700" y="280" width="60" height="30" as="geometry" />
        </mxCell>
        <mxCell id="r4TWweg1bSOyHS32X4sf-28" style="edgeStyle=orthogonalEdgeStyle;rounded=0;orthogonalLoop=1;jettySize=auto;html=1;entryX=0.25;entryY=0;entryDx=0;entryDy=0;startArrow=classic;startFill=1;" parent="1" source="r4TWweg1bSOyHS32X4sf-15" target="r4TWweg1bSOyHS32X4sf-1" edge="1">
          <mxGeometry relative="1" as="geometry" />
        </mxCell>
        <mxCell id="r4TWweg1bSOyHS32X4sf-15" value="" style="rounded=1;whiteSpace=wrap;html=1;" parent="1" vertex="1">
          <mxGeometry x="20" y="80" width="300" height="280" as="geometry" />
        </mxCell>
        <mxCell id="r4TWweg1bSOyHS32X4sf-16" value="Channel simulation" style="text;html=1;strokeColor=none;fillColor=none;align=center;verticalAlign=middle;whiteSpace=wrap;rounded=0;" parent="1" vertex="1">
          <mxGeometry x="50" y="105" width="60" height="30" as="geometry" />
        </mxCell>
        <mxCell id="r4TWweg1bSOyHS32X4sf-19" value="" style="rounded=1;whiteSpace=wrap;html=1;fillColor=#dae8fc;strokeColor=#6c8ebf;" parent="1" vertex="1">
          <mxGeometry x="50" y="175" width="120" height="60" as="geometry" />
        </mxCell>
        <mxCell id="r4TWweg1bSOyHS32X4sf-18" value="Raytracing" style="text;html=1;strokeColor=none;fillColor=none;align=center;verticalAlign=middle;whiteSpace=wrap;rounded=0;" parent="1" vertex="1">
          <mxGeometry x="80" y="190" width="60" height="30" as="geometry" />
        </mxCell>
        <mxCell id="r4TWweg1bSOyHS32X4sf-32" style="edgeStyle=orthogonalEdgeStyle;rounded=0;orthogonalLoop=1;jettySize=auto;html=1;entryX=0.5;entryY=0;entryDx=0;entryDy=0;startArrow=classic;startFill=1;" parent="1" source="r4TWweg1bSOyHS32X4sf-1" target="r4TWweg1bSOyHS32X4sf-25" edge="1">
          <mxGeometry relative="1" as="geometry" />
        </mxCell>
        <mxCell id="r4TWweg1bSOyHS32X4sf-1" value="" style="rounded=1;whiteSpace=wrap;html=1;" parent="1" vertex="1">
          <mxGeometry x="340" y="265" width="120" height="60" as="geometry" />
        </mxCell>
        <mxCell id="r4TWweg1bSOyHS32X4sf-2" value="Channel model" style="text;html=1;strokeColor=none;fillColor=none;align=center;verticalAlign=middle;whiteSpace=wrap;rounded=0;" parent="1" vertex="1">
          <mxGeometry x="370" y="280" width="60" height="30" as="geometry" />
        </mxCell>
        <mxCell id="r4TWweg1bSOyHS32X4sf-25" value="" style="rounded=1;whiteSpace=wrap;html=1;" parent="1" vertex="1">
          <mxGeometry x="225" y="385" width="350" height="290" as="geometry" />
        </mxCell>
        <mxCell id="r4TWweg1bSOyHS32X4sf-26" value="Real data processing" style="text;html=1;strokeColor=none;fillColor=none;align=center;verticalAlign=middle;whiteSpace=wrap;rounded=0;" parent="1" vertex="1">
          <mxGeometry x="260" y="415" width="60" height="30" as="geometry" />
        </mxCell>
        <mxCell id="r4TWweg1bSOyHS32X4sf-27" value="" style="rounded=1;whiteSpace=wrap;html=1;" parent="1" vertex="1">
          <mxGeometry x="260" y="485" width="120" height="60" as="geometry" />
        </mxCell>
        <mxCell id="r4TWweg1bSOyHS32X4sf-33" value="C.F.O. compensation" style="text;html=1;strokeColor=none;fillColor=none;align=center;verticalAlign=middle;whiteSpace=wrap;rounded=0;" parent="1" vertex="1">
          <mxGeometry x="290" y="500" width="60" height="30" as="geometry" />
        </mxCell>
        <mxCell id="r4TWweg1bSOyHS32X4sf-34" value="" style="rounded=1;whiteSpace=wrap;html=1;" parent="1" vertex="1">
          <mxGeometry x="420" y="485" width="120" height="60" as="geometry" />
        </mxCell>
        <mxCell id="r4TWweg1bSOyHS32X4sf-35" value="Frequency agregation" style="text;html=1;strokeColor=none;fillColor=none;align=center;verticalAlign=middle;whiteSpace=wrap;rounded=0;" parent="1" vertex="1">
          <mxGeometry x="450" y="500" width="60" height="30" as="geometry" />
        </mxCell>
        <mxCell id="r4TWweg1bSOyHS32X4sf-36" value="" style="rounded=1;whiteSpace=wrap;html=1;" parent="1" vertex="1">
          <mxGeometry x="430" y="580" width="120" height="60" as="geometry" />
        </mxCell>
        <mxCell id="r4TWweg1bSOyHS32X4sf-37" value="IQ normalization" style="text;html=1;strokeColor=none;fillColor=none;align=center;verticalAlign=middle;whiteSpace=wrap;rounded=0;" parent="1" vertex="1">
          <mxGeometry x="460" y="595" width="60" height="30" as="geometry" />
        </mxCell>
        <mxCell id="r4TWweg1bSOyHS32X4sf-38" value="" style="rounded=1;whiteSpace=wrap;html=1;" parent="1" vertex="1">
          <mxGeometry x="260" y="580" width="120" height="60" as="geometry" />
        </mxCell>
        <mxCell id="r4TWweg1bSOyHS32X4sf-39" value="IQ scaling (using rssi value)" style="text;html=1;strokeColor=none;fillColor=none;align=center;verticalAlign=middle;whiteSpace=wrap;rounded=0;" parent="1" vertex="1">
          <mxGeometry x="290" y="595" width="60" height="30" as="geometry" />
        </mxCell>
        <mxCell id="r4TWweg1bSOyHS32X4sf-40" value="" style="rounded=1;whiteSpace=wrap;html=1;fillColor=#dae8fc;strokeColor=#6c8ebf;" parent="1" vertex="1">
          <mxGeometry x="510" y="270" width="120" height="60" as="geometry" />
        </mxCell>
        <mxCell id="r4TWweg1bSOyHS32X4sf-41" value="FIM calculation" style="text;html=1;strokeColor=none;fillColor=none;align=center;verticalAlign=middle;whiteSpace=wrap;rounded=0;" parent="1" vertex="1">
          <mxGeometry x="540" y="285" width="60" height="30" as="geometry" />
        </mxCell>
        <mxCell id="r4TWweg1bSOyHS32X4sf-42" value="" style="rounded=1;whiteSpace=wrap;html=1;" parent="1" vertex="1">
          <mxGeometry x="60" y="265" width="120" height="60" as="geometry" />
        </mxCell>
        <mxCell id="r4TWweg1bSOyHS32X4sf-43" value="3D modeling (different material)" style="text;html=1;strokeColor=none;fillColor=none;align=center;verticalAlign=middle;whiteSpace=wrap;rounded=0;" parent="1" vertex="1">
          <mxGeometry x="90" y="280" width="60" height="30" as="geometry" />
        </mxCell>
        <mxCell id="r4TWweg1bSOyHS32X4sf-46" style="edgeStyle=orthogonalEdgeStyle;rounded=0;orthogonalLoop=1;jettySize=auto;html=1;exitX=0.25;exitY=1;exitDx=0;exitDy=0;startArrow=classic;startFill=1;endArrow=none;endFill=0;" parent="1" source="r4TWweg1bSOyHS32X4sf-44" edge="1">
          <mxGeometry relative="1" as="geometry">
            <mxPoint x="370.19047619047615" y="220" as="targetPoint" />
          </mxGeometry>
        </mxCell>
        <mxCell id="r4TWweg1bSOyHS32X4sf-47" style="edgeStyle=orthogonalEdgeStyle;rounded=0;orthogonalLoop=1;jettySize=auto;html=1;exitX=0.75;exitY=1;exitDx=0;exitDy=0;startArrow=classic;startFill=1;endArrow=none;endFill=0;" parent="1" source="r4TWweg1bSOyHS32X4sf-44" edge="1">
          <mxGeometry relative="1" as="geometry">
            <mxPoint x="430.19047619047615" y="220" as="targetPoint" />
          </mxGeometry>
        </mxCell>
        <mxCell id="r4TWweg1bSOyHS32X4sf-44" value="" style="rounded=1;whiteSpace=wrap;html=1;fillColor=#dae8fc;strokeColor=#6c8ebf;" parent="1" vertex="1">
          <mxGeometry x="340" y="100" width="120" height="75" as="geometry" />
        </mxCell>
        <mxCell id="r4TWweg1bSOyHS32X4sf-45" value="Physical &amp;lt;-&amp;gt; normalized&amp;nbsp; parameters mapping" style="text;html=1;strokeColor=none;fillColor=none;align=center;verticalAlign=middle;whiteSpace=wrap;rounded=0;" parent="1" vertex="1">
          <mxGeometry x="360" y="125" width="80" height="30" as="geometry" />
        </mxCell>
        <mxCell id="614Mdoij8_vc3SIsckdE-1" value="" style="rounded=1;whiteSpace=wrap;html=1;fillColor=#dae8fc;strokeColor=#6c8ebf;" parent="1" vertex="1">
          <mxGeometry x="510" y="200" width="120" height="60" as="geometry" />
        </mxCell>
        <mxCell id="614Mdoij8_vc3SIsckdE-2" value="New Path search" style="text;html=1;strokeColor=none;fillColor=none;align=center;verticalAlign=middle;whiteSpace=wrap;rounded=0;" parent="1" vertex="1">
          <mxGeometry x="540" y="215" width="60" height="30" as="geometry" />
        </mxCell>
        <mxCell id="3WN1_VAAksavaQUMz8hd-1" value="" style="rounded=1;whiteSpace=wrap;html=1;" vertex="1" parent="1">
          <mxGeometry x="190" y="175" width="120" height="60" as="geometry" />
        </mxCell>
        <mxCell id="3WN1_VAAksavaQUMz8hd-2" value="DMC Simulation" style="text;html=1;strokeColor=none;fillColor=none;align=center;verticalAlign=middle;whiteSpace=wrap;rounded=0;" vertex="1" parent="1">
          <mxGeometry x="220" y="190" width="60" height="30" as="geometry" />
        </mxCell>
      </root>
    </mxGraphModel>
  </diagram>
</mxfile>
